<?xml version="1.0" encoding="utf-8"?>
<!-- Generator: Adobe Illustrator 14.0.0, SVG Export Plug-In . SVG Version: 6.00 Build 43363)  -->
<!DOCTYPE svg PUBLIC "-//W3C//DTD SVG 1.1//EN" "http://www.w3.org/Graphics/SVG/1.1/DTD/svg11.dtd">
<svg version="1.1" id="Calque_1" xmlns="http://www.w3.org/2000/svg" xmlns:xlink="http://www.w3.org/1999/xlink" x="0px" y="0px"
	 width="800px" height="600px" viewBox="0 0 800 600" enable-background="new 0 0 800 600" xml:space="preserve">
<g id="XMLID_2_">
	<g>
		<path d="M790.841,321.694c1.116,14.167,1.116,14.167,0,32.831c-5.564,28.088-11.097,54.665-24.624,75.514
			c-18.319,28.234-57.455,45.685-96.853,60.738c-50.2,19.174-95.573,26.955-154.31,29.548c-20.24,0-40.497,0-60.738,0
			c-84.459-8.011-158.363-26.577-219.972-57.455c0.082-4.711,7.272-1.789,8.208-1.642c3.645,0.591,8.027,2.545,11.491,3.283
			c111.874,23.951,252.689,34.211,370.998,9.85c23.901-4.925,84.328-15.743,85.362-37.757c0.378-7.978-11.359-19.551-18.058-22.981
			c-39.792-20.372-109.214,9.932-142.817,16.416c5.154-6.961,18.517-9.423,31.19-13.133c11.179-3.267,23.967-7.798,36.114-9.85
			c40.465-6.862,82.752-3.529,96.854,21.341c13.362-2.381,28.433-3.94,37.806-13.56c12.181-12.493,17.828-62.545,16.006-89.664
			c-2.594-38.741-25.986-92.338-48.328-109.345c-5.943-4.531-15.3-12.558-25.183-17.253c-12.246-5.828-23.721-11.245-32.831-9.849
			c-10.949,1.69-30.698,21.127-39.398,36.115c-11.737,20.208-6.287,40.875-11.491,60.738c-8.471,5.04-16.776,1.576-22.981,4.925
			c-19.01,10.276-6.238,41.745-19.699,57.455c-37.067,1.56-56.389-20.404-57.456-49.247
			c-2.462-66.73,64.548-105.767,105.062-128.043c-24.312-13.412-60.492-24.016-87.004-9.85
			c-15.332,8.192-33.16,30.271-36.114,50.889c-2.266,15.792,4.251,32.979-3.283,50.889c-11.557,3.809-18.205-1.297-26.266,1.642
			c-18.484,6.73-15.25,32.7-26.266,47.606c-30.418,2.396-45.34-20.52-47.605-41.04c-6.32-57.209,45.768-99.939,77.154-119.835
			c-25.526-1.33-50.758,4.169-68.946,13.132c-33.571,16.531-39.973,46.703-39.398,96.854c-8.191,5.565-21.357-3.923-29.548,1.642
			c-11.458,12.065-4.793,42.254-21.34,49.248c-29.549,3.431-46.08-18.041-49.248-36.115
			c-11.343-64.793,50.528-106.834,82.079-129.685c-44.29,21.028-112.383,36.098-141.176,75.513
			c-7.535,10.309-17.729,21.997-18.057,36.115c-4.958-4.481-9.784,1.133-14.774,1.642c1.51-14.15,12.377-20.881,11.491-32.832
			c-1.215-16.17-27.661-27.628-32.832-39.398c-16.448,6.304-23.163,23.458-19.699,42.681c2.594,14.38,21.964,22.014,16.416,34.473
			c-6.698,8.405-13.872-9.85-19.699-13.133c-27.267,20.93-52.925,61.674-65.663,100.136c-4.597,13.889-8.52,30.041-14.774,41.04
			c-6.238,10.966-26.594,23.426-22.982,36.115c3.776,13.28,21.341,8.29,29.549,3.283c13.428-8.176,14.265-29.845,27.907-34.474
			c-0.821,18.878-14.906,24.492-22.982,36.114c16.301-7.715,25.477-23.803,42.681-34.473c17.516-10.884,39.48-13.1,54.172-24.624
			c11.951-9.373,15.103-27.382,26.266-34.473c6.977,15.513-9.817,19.091-11.491,31.189c-8.585,5.582-13.297,17.532-22.982,22.982
			c-11.015,6.188-28.498,7.798-42.681,16.416C69.218,427.888,47.417,462,11.089,441.529c-5.647-4.925-4.416-12.919,0-21.34
			c3.398-8.077,7.813-12.559,13.132-19.699c17.253-23.163,22.752-53.056,36.115-82.079c9.636-20.947,22.506-36.361,34.474-52.531
			c-20.109-18.287-38.118-57.176-21.341-91.929c12.377,11.163,25.954,21.094,44.323,26.265c13.396-8.503,17.237-26.544,34.473-31.19
			c6.977,13.822,15.513,26.068,29.549,32.832c29.614-43.682,77.827-61.46,132.968-80.438c36.213-12.459,92.881-21.357,136.35-26.856
			c0.033,0,0.065,0,0.099-0.017c19.107-1.56,34.44-1.346,57.258,0.607c74.413,8.208,141.57,36.213,188.782,73.871
			c15.48,12.345,19.699,15.874,33.374,29.828c10.292,10.49,19.223,21.029,27.365,32.553
			C776.034,256.95,784.619,286.86,790.841,321.694z M111.226,254.389c7.88-8.536,6.862-25.97,6.566-42.681
			c-20.52,0.821-30.78-8.618-42.681-16.416C75.636,226.515,90.887,242.98,111.226,254.389z"/>
		<path d="M554.453,362.733c10.818,18.55-10.243,36.263-22.982,21.341C525.495,364.358,540.763,352.293,554.453,362.733z
			 M547.887,384.074c3.956-2.38,4.711-13.789,1.642-18.058c-3.874,0.033-4.826-2.823-9.85-1.642
			c-4.268,2.856-3.332,10.9-3.283,18.058C540.253,382.958,542.552,385.026,547.887,384.074z"/>
		<path fill="#FFFFFF" d="M549.528,366.017c3.069,4.269,2.314,15.678-1.642,18.058c-5.335,0.952-7.634-1.116-11.491-1.642
			c-0.049-7.157-0.984-15.201,3.283-18.058C544.702,363.193,545.654,366.05,549.528,366.017z"/>
		<path d="M506.848,349.601c2.281,11.951-5.763,34.211,6.565,36.115c-0.065,6.024-17.039,3.645-19.698,1.642
			c-1.691-5.516,5.105-2.561,8.208-3.283c0-9.308,0-18.599,0-27.907c-1.297-3.628-10.162,0.313-8.208-6.566
			C496.095,347.188,504.467,347.188,506.848,349.601z"/>
		<path d="M467.449,349.601c2.282,11.951-5.762,34.211,6.566,36.115c-0.065,6.024-17.04,3.645-19.699,1.642
			c-1.69-5.516,5.105-2.561,8.208-3.283c0-9.308,0-18.599,0-27.907c-1.297-3.628-10.161,0.313-8.208-6.566
			C456.697,347.188,465.069,347.188,467.449,349.601z"/>
		<path d="M436.259,384.074c1.149,7.617-22.489,7.617-21.34,0c2.741,0,5.466,0,8.207,0c0-6.024,0-12.033,0-18.058
			c0.279-4.662-10.735,1.986-8.207-4.925c2.38-2.544,8.404-1.444,13.132-1.642C430.333,368.102,421.764,387.62,436.259,384.074z"/>
		<path d="M428.051,346.318c0,2.741,0,5.466,0,8.207c-5.614,0.689-9.356-0.492-8.207-6.566
			C421.747,346.58,424.243,345.793,428.051,346.318z"/>
		<path d="M395.22,347.959c7.174,7.601,1.444,28.104,3.283,41.04c-7.732-4.515-7.716,1.264-19.699,0
			c-7.108-4.104-7.108-25.444,0-29.549c6.55-0.525,12.131-0.082,14.774,3.283C393.906,357.596,392.478,350.685,395.22,347.959z
			 M393.578,379.149c3.808-20.471-21.686-17.745-14.774,3.283C384.927,385.798,389.556,382.302,393.578,379.149z"/>
		<path fill="#FFFFFF" d="M378.804,382.433c-6.911-21.028,18.583-23.754,14.774-3.283
			C389.556,382.302,384.927,385.798,378.804,382.433z"/>
		<path d="M359.104,361.092c2.873,6.978,1.215,18.468,1.642,27.907c-6.418-3.267-12.033,1.478-21.34,0
			c-3.858-2.709-3.563-9.57-3.283-16.416c4.925-2.184,12.558-1.674,19.699-1.642c2.2-9.865-11.13-4.202-14.774-8.208
			C341.605,355.822,355.526,360.436,359.104,361.092z M355.822,377.508c-2.725-2.741-9.636-1.313-14.774-1.642
			c-0.525,3.809,0.263,6.304,1.642,8.208C349.813,384.633,354.574,382.827,355.822,377.508z"/>
		<path fill="#FFFFFF" d="M341.047,375.866c5.138,0.328,12.049-1.1,14.774,1.642c-1.248,5.319-6.008,7.125-13.133,6.566
			C341.31,382.17,340.522,379.675,341.047,375.866z"/>
		<path d="M319.707,359.45c1.51,8.208,4.301,22.49,1.642,29.549c-9.193-0.099-3.217-15.398-4.925-22.982
			c-10.473-0.623-0.919,18.78-6.566,22.982c-7.141-1.608-1.461-16.038-3.283-22.982c-10.474-0.623-0.919,18.78-6.566,22.982
			c-7.322-3.628-1.346-20.553-3.283-29.549C308.019,359.631,308.626,362.438,319.707,359.45z"/>
		<path d="M278.667,359.45c1.806,1.642,6.156,8.947,1.642,11.491c-5.959,1.576-1.379-7.37-6.566-6.566
			c-5.696,0.313-6.238,5.812-11.491,6.566c-1.034,5.532,2.118,15.251-1.642,18.058c-7.322-3.628-1.346-20.553-3.283-29.549
			C265.141,367.593,264.779,357.382,278.667,359.45z"/>
		<path d="M234.344,346.318c2.216,14.363,10.851,30.5,9.85,42.681c-6.041,0.559-4.958-5.976-6.566-9.85c-3.283,0-6.566,0-9.849,0
			c-4.711,1.313-1.035,11.016-8.208,9.85c-1.445-12.607,8.191-27.759,9.849-42.681C231.061,346.318,232.703,346.318,234.344,346.318
			z M227.778,374.225c2.741,0,5.466,0,8.208,0c-1.642-3.365-2.955-15.529-4.925-13.133
			C231.504,367.002,228.024,369.005,227.778,374.225z"/>
		<path fill="#FFFFFF" d="M235.986,374.225c-2.741,0-5.466,0-8.208,0c0.246-5.22,3.726-7.223,3.283-13.133
			C233.031,358.695,234.344,370.859,235.986,374.225z"/>
		<path d="M153.119,295.166c2.003,5.237,1.51,9.554,0.788,15.037c-10.03,0.771-7.387-10.473-5.696-17.286
			C150.394,292.917,150.919,294.707,153.119,295.166z"/>
		<path d="M144.057,216.633c0.772,9.292,6.911,19.239,1.642,26.265c-15.611-2.905-15.151-40.58-3.283-47.605
			C147.062,198.772,143.401,208.737,144.057,216.633z"/>
		<path d="M139.133,283.938c8.076,1.363-1.313,9.653-1.642,13.133c9.34,13.97-2.462,33.062-13.133,37.757
			c-7.765,1.198-10.785-2.348-14.774-4.925c-4.399,2.167-2.725,10.407-4.925,14.774c-13.214-9.275,4.777-21.439,3.283-34.474
			C118.416,301.535,130.58,294.542,139.133,283.938z M122.717,323.336c1.625-3.94,9.374-10.228,4.925-14.774
			c-0.082,2.102-2.101,2.266-1.642,4.925c-2.348-0.641-2.774-1.97-4.925,0C122.027,316.375,119.089,323.139,122.717,323.336z"/>
		<path fill="#FFFFFF" d="M127.642,308.562c4.449,4.547-3.3,10.834-4.925,14.774c-3.628-0.197-0.689-6.961-1.642-9.85
			c2.15-1.97,2.577-0.641,4.925,0C125.541,310.827,127.56,310.663,127.642,308.562z"/>
		<path fill="#FFFFFF" d="M117.792,211.708c0.295,16.711,1.313,34.145-6.566,42.681c-20.339-11.409-35.589-27.874-36.115-59.097
			C87.012,203.09,97.272,212.529,117.792,211.708z"/>
		<path d="M43.921,420.189c0.968,8.093-1.592,12.64-9.85,11.491C33.563,424.063,36.944,420.337,43.921,420.189z"/>
	</g>
	<g>
	</g>
</g>
</svg>
